<svg xmlns="http://www.w3.org/2000/svg" viewBox="0 0 512 512">
    <defs>
        <radialGradient id="bg" cx="50%" cy="42%" r="68%">
            <stop offset="0%" stop-color="#1b2437"/>
            <stop offset="44%" stop-color="#070a12"/>
            <stop offset="100%" stop-color="#010204"/>
        </radialGradient>
        <linearGradient id="silver" x1="138" y1="142" x2="360" y2="342" gradientUnits="userSpaceOnUse">
            <stop offset="0%" stop-color="#ffffff"/>
            <stop offset="32%" stop-color="#cdd8ea"/>
            <stop offset="52%" stop-color="#7e8799"/>
            <stop offset="72%" stop-color="#ffffff"/>
            <stop offset="100%" stop-color="#d7dfec"/>
        </linearGradient>
        <linearGradient id="starGold" x1="8%" y1="4%" x2="92%" y2="96%">
            <stop offset="0%" stop-color="#fff8db"/>
            <stop offset="52%" stop-color="#efd6a3"/>
            <stop offset="100%" stop-color="#946f32"/>
        </linearGradient>
        <linearGradient id="starBlue" x1="4%" y1="8%" x2="92%" y2="96%">
            <stop offset="0%" stop-color="#ffffff"/>
            <stop offset="48%" stop-color="#9fbaff"/>
            <stop offset="100%" stop-color="#405a9f"/>
        </linearGradient>
        <filter id="starLift" x="-120%" y="-120%" width="340%" height="340%">
            <feDropShadow dx="0" dy="3" stdDeviation="3" flood-color="#000000" flood-opacity="0.44"/>
            <feDropShadow dx="0" dy="0" stdDeviation="6" flood-color="#ffffff" flood-opacity="0.34"/>
        </filter>
    </defs>
    <rect width="512" height="512" fill="url(#bg)"/>
    <circle cx="360" cy="142" r="142" fill="#6d98ff" opacity="0.16"/>
    <circle cx="162" cy="360" r="154" fill="#efd6a3" opacity="0.14"/>
    <ellipse cx="256" cy="256" rx="204" ry="75" fill="none" stroke="#efd6a3" stroke-width="10" stroke-opacity="0.45" transform="rotate(-18 256 256)"/>
    <ellipse cx="256" cy="256" rx="178" ry="58" fill="none" stroke="#9fbaff" stroke-width="6" stroke-opacity="0.36" transform="rotate(34 256 256)"/>
    <g filter="url(#starLift)">
        <g transform="translate(400 176) rotate(18) scale(1.18)">
            <path d="M0 -17L5.2 -5.2L17 0L5.2 5.2L0 17L-5.2 5.2L-17 0L-5.2 -5.2Z" fill="url(#starGold)"/>
            <path d="M0 -17L5.2 -5.2L0 0L-5.2 -5.2Z" fill="#fff8db"/>
            <path d="M0 17L-5.2 5.2L0 0L5.2 5.2Z" fill="#5d4723" opacity="0.72"/>
        </g>
        <g transform="translate(116 314) rotate(-16) scale(1)">
            <path d="M0 -17L5.2 -5.2L17 0L5.2 5.2L0 17L-5.2 5.2L-17 0L-5.2 -5.2Z" fill="url(#starBlue)"/>
            <path d="M0 -17L5.2 -5.2L0 0L-5.2 -5.2Z" fill="#ffffff"/>
            <path d="M0 17L-5.2 5.2L0 0L5.2 5.2Z" fill="#263862" opacity="0.78"/>
        </g>
    </g>
    <g font-family="Arial Black, Arial, Helvetica, sans-serif" font-size="178" font-weight="900" text-anchor="middle">
        <text x="262" y="316" fill="#0b0d14" stroke="#000000" stroke-width="9" opacity="0.75">SA</text>
        <text x="256" y="303" fill="#f8fbff" stroke="#ffffff" stroke-width="2" paint-order="stroke fill">SA</text>
        <text x="256" y="303" fill="none" stroke="url(#silver)" stroke-width="5" opacity="0.58">SA</text>
    </g>
</svg>
